<?xml version="1.0" encoding="utf-8"?>
<!-- Generator: Adobe Illustrator 27.2.0, SVG Export Plug-In . SVG Version: 6.00 Build 0)  -->
<svg version="1.1" id="Layer_1" xmlns="http://www.w3.org/2000/svg" xmlns:xlink="http://www.w3.org/1999/xlink" x="0px" y="0px"
	 viewBox="0 0 174 120" style="enable-background:new 0 0 174 120;" xml:space="preserve">
<style type="text/css">
	.st0{fill:#E6E6E6;}
	.st1{fill:#FFFFFF;}
	.st2{fill:#303030;}
	.st3{opacity:0.61;fill:#303030;}
	.st4{fill:#B79B63;}
	.st5{fill:#EADEC5;}
	.st6{fill:#60195D;}
	.st7{fill:#1A1A1A;}
	.st8{font-family:'Quantify';}
	.st9{font-size:52.9198px;}
	.st10{fill:#999999;}
	.st11{fill:#B79B63;stroke:#B79B63;stroke-miterlimit:10;}
	.st12{fill:#FFFFFF;stroke:#E6E6E6;stroke-miterlimit:10;}
	.st13{fill:none;stroke:#E6E6E6;stroke-miterlimit:10;}
</style>
<g>
	<text transform="matrix(1 0 0 1 11.5576 102.4553)" class="st7 st8 st9">Rolling</text>
	<g>
		<path class="st7" d="M13.18,59.53l20.31-22.34l8.28-0.62l13.12-14.22l12.65,10.78L81.6,18.76l3.59-0.23L94.4,7.05l29.21,31.87
			l4.69-4.84l34.52,27.96L127.44,44.5l-8.98,4.25c0,0-14.53-6.87-15-7.19c-0.47-0.31-8.9-5-10-5c-1.09,0-9.06,4.84-9.06,4.84
			l5.15-10.31l5.31-5.15L93,20.64l-2.97-3.44L56.91,47.35l0.47-4.37l0.62-6.25l2.34-4.84l-5-4.69L43.32,39.38l-7.97,0.16
			L13.18,59.53L13.18,59.53z"/>
	</g>
</g>
</svg>
